PathFileType	4	(X/Y/Z)	RBDS013\RBDS013runT35.trc
DataRate	CameraRate	NumFrames	NumMarkers	Units	OrigDataRate	OrigDataStartFrame	OrigNumFrames
150.000000	150.000000	6	33	mm	150.000000	1687	4500
Frame#	Time	L.ASIS			L.Heel.Bottom			L.Heel.Lateral			L.Heel.Top			L.Iliac.Crest			L.MT1			L.MT5			L.PSIS			L.Shank.Bottom.Lateral			L.Shank.Bottom.Medial			L.Shank.Top.Lateral			L.Shank.Top.Medial			L.Thigh.Bottom.Lateral			L.Thigh.Bottom.Medial			L.Thigh.Top.Lateral			L.Thigh.Top.Medial			R.ASIS			R.ASY			R.Heel.Bottom			R.Heel.Lateral			R.Heel.Top			R.Iliac.Crest			R.MT1			R.MT5			R.PSIS			R.Shank.Bottom.Lateral			R.Shank.Bottom.Medial			R.Shank.Top.Lateral			R.Shank.Top.Medial			R.Thigh.Bottom.Lateral			R.Thigh.Bottom.Medial			R.Thigh.Top.Lateral			R.Thigh.Top.Medial			
		X1	Y1	Z1	X2	Y2	Z2	X3	Y3	Z3	X4	Y4	Z4	X5	Y5	Z5	X6	Y6	Z6	X7	Y7	Z7	X8	Y8	Z8	X9	Y9	Z9	X10	Y10	Z10	X11	Y11	Z11	X12	Y12	Z12	X13	Y13	Z13	X14	Y14	Z14	X15	Y15	Z15	X16	Y16	Z16	X17	Y17	Z17	X18	Y18	Z18	X19	Y19	Z19	X20	Y20	Z20	X21	Y21	Z21	X22	Y22	Z22	X23	Y23	Z23	X24	Y24	Z24	X25	Y25	Z25	X26	Y26	Z26	X27	Y27	Z27	X28	Y28	Z28	X29	Y29	Z29	X30	Y30	Z30	X31	Y31	Z31	X32	Y32	Z32	X33	Y33	Z33	

1688	11.24666666666667	2256.894138646636	848.3905171888177	938.2196831705395	1814.370754197612	674.9520136927579	993.029091497322	1817.595656280967	644.9241992674613	947.4017404814988	1846.578451042573	640.625022766768	988.0120419572103	2224.232075129925	919.6317304096882	902.5469604930618	1710.089170406339	488.6357959500606	1010.692078341426	1711.698375625265	531.0643492141932	908.1813794178248	2095.643099490508	907.3681691530948	989.971732530077	1887.97171505158	559.4205123361337	922.1430024528996	1906.455351478096	591.7101402421671	964.5956247393664	1963.800242224467	534.6705141672264	909.4775603664825	1982.238134980985	565.2864486635733	949.9752299887913	2188.023842888487	503.0875348588057	876.888064452215	2120.930274809542	505.1138204018008	904.843721541822	2184.968536420136	612.9905966518256	868.6018024387383	2120.43326952048	614.8319989696879	893.1922406048818	2241.851911575398	863.9317623750886	1167.946092105165	2280.105105971061	76.49526672064319	1078.847825104135	2095.541730318937	33.14344216836274	1059.628548119437	2117.482623348489	53.34711349121185	1100.814419762178	2108.444339052912	83.14598295857451	1058.315305047508	2193.162095571216	921.002558588135	1202.524270567523	2306.58349749502	42.72097373791896	1036.92580449016	2269.361034025914	38.17618482024527	1143.137124801776	2083.29150756431	911.1329212052191	1089.672222844288	2196.056908616989	146.1127910020057	1121.700024681455	2158.156559850711	166.2252396203597	1092.789779403574	2218.237421782675	225.1738189604149	1144.531540420246	2177.788779472761	242.5253805954191	1112.94549969776	2268.020775049796	557.6688629939405	1199.699667402131	2214.450427507068	533.1717837936178	1155.49174695239	2210.349807509155	650.5399121685152	1212.724250799357	2160.082795970985	628.585871433814	1170.773975035005	
1689	11.25333333333333	2254.332409597387	844.5489373659121	938.4404581773342	1829.439218355911	669.81837023397	991.0228192735112	1833.059939406369	639.4318804379179	945.9172441803881	1862.11015501351	635.9310426217465	986.4565789749164	2219.944216495848	915.4601506228104	902.2467033313654	1727.422354424872	482.6648349114738	1011.373539229388	1728.527653791137	523.5996349873022	908.2890165927648	2093.192749827429	904.4522549592629	989.9389944955218	1904.990581165141	554.3099983165228	921.4988118353472	1923.505550449835	586.6421687720172	963.9787985062609	1980.862747294162	529.400515889164	909.088971696057	1999.30999894182	559.9514935256096	949.6200709564569	2200.425749903794	500.8224097906221	876.3125130357932	2133.189729457261	499.7894313786048	903.860357049149	2192.559080985106	610.4790444632437	868.4192610186087	2127.800779545021	609.3557036382884	892.3984227980995	2239.045310269777	861.0635357174995	1168.727154177889	2256.672086116885	76.60828927421673	1078.804693185655	2072.359843342629	33.91111769079838	1059.649389293815	2094.350303205671	54.20810623850968	1100.793047139984	2085.412012151218	83.86886791720787	1058.195368886126	2190.260880550861	916.8315073380782	1202.69110937895	2283.066148614656	43.46125281890768	1037.185671415734	2245.980679398225	38.87981145745578	1143.259831623722	2080.686043979534	908.9106066148707	1088.910282406543	2175.808711805153	146.1343628274563	1121.194129273944	2138.362238321634	167.4941395856836	1092.668654323447	2201.057111649128	224.396135074935	1143.919363157533	2160.873322505776	243.1030544045074	1112.63541001615	2260.544194366022	554.0408225066058	1199.149976584882	2206.259557338265	530.7134800799291	1155.151025630272	2204.674616900601	648.0658699516839	1212.588401094174	2153.942661946573	627.1734438043311	1170.741264684426	
1690	11.26	2251.682092556134	841.7954782742695	938.4636237027963	1842.895952502048	663.4213382356456	988.7886912362114	1847.186854069255	632.6896563024043	944.3129312386317	1876.302366802187	630.3018273624315	984.7592171013885	2215.181827083145	912.6505755857148	901.8452118092218	1744.862606836771	474.7335966657221	1012.202675800709	1745.118668484588	513.9785083515092	908.5216479393919	2090.750538442833	902.6091583246476	989.8727424177441	1921.461863239397	548.6613303817595	920.8915321772009	1939.643285249653	581.233113175221	963.4000259858982	1997.585877672553	524.308331929964	908.8838506211797	2015.689769312683	555.0233092226061	949.4120245273159	2213.428934563376	500.1932239919042	875.9704586648119	2146.168778343995	495.950748167642	903.0922920781651	2200.496415281875	609.3507689381458	868.3094325385672	2135.652745034142	605.1229375759697	891.6624436889697	2236.126302201494	858.929915585615	1169.500167609469	2233.28668525991	76.79481738954719	1079.164531752612	2049.135990490638	34.95313325390875	1059.74528523156	2071.164819671878	55.16506882435107	1100.932508978637	2062.363223127602	84.86535209094302	1058.355343517324	2186.985050721647	913.7925773336444	1202.78743063298	2259.488678988733	44.22467807213141	1037.641057977339	2222.552470922939	39.38680475311415	1143.511048821498	2078.098394659607	907.5828737416507	1088.200982567812	2155.001576913631	146.4201416218677	1121.033101347237	2118.110148738953	168.9014542824092	1092.754076464721	2182.972215403513	223.8414335080153	1143.596506843499	2143.219233040119	243.7766205521012	1112.472900216158	2252.178523539364	550.8804810082136	1198.649945436159	2197.054709582414	528.8381794004393	1155.015582831782	2198.449245202543	646.1993893263505	1212.403582339593	2147.173495669854	626.478278404658	1170.748823774093	
1691	11.26666666666667	2249.036398891542	840.1993275110099	938.3018769488542	1854.637437371852	655.7484376113894	986.3922205953896	1859.88025807862	624.6975715229303	942.6329267847592	1889.030806936677	623.733058496738	982.9769980013634	2210.186943663174	911.2323455495969	901.360583452299	1762.340461444322	464.9296998370677	1013.170305450073	1761.446594981155	502.3123404222364	908.8834552030323	2088.395793446427	901.8214858510336	989.778763229343	1937.20636383976	542.5338963450705	920.3517741965139	1954.674674991147	575.5484565939886	962.8689683953903	2013.772584569238	519.4845135093644	908.8693053360843	2031.171064435154	550.6052483069537	949.3476998448975	2226.851978104535	501.2787146848776	875.8910141593267	2159.697751150209	493.7176241226599	902.5693366052031	2208.670294793329	609.6615749725088	868.2740171694702	2143.895459041151	602.2340879175093	890.9984924908753	2233.208374028732	857.5131064247855	1170.233617086914	2209.971622712234	76.98971082900283	1079.805874337229	2025.829596701469	36.31323356929433	1059.887777572648	2047.905764501771	56.27557150445269	1101.189525401182	2039.299777177919	86.17609387922582	1058.730506839808	2183.481469907947	911.9053005512271	1202.816264949824	2235.832864137294	44.87614096307414	1038.19507588341	2199.047641052689	39.67116513245986	1143.82250632303	2075.633398763408	907.1227382027188	1087.595579163187	2133.730020629849	146.9575502339456	1121.158305883018	2097.444308651171	170.450472498536	1093.022149824679	2164.097665179056	223.51692891011	1143.553872630649	2124.892305409866	244.5683198099375	1112.485751209963	2242.985859121346	548.2230511384499	1198.237007210451	2186.928657283327	527.573536144985	1155.101630627613	2191.734882916199	644.9450710508763	1212.180415619357	2139.849499805256	626.5058680669857	1170.786673723645	
1692	11.27333333333333	2246.49272144584	839.7831897350909	937.988599309768	1864.655347530648	646.7622543502043	983.9211712695882	1871.133603639642	615.442199823893	940.9328174927988	1900.254495069455	616.1899500657688	981.181458125326	2205.224203530263	911.165435225284	900.8191697349068	1779.835752840187	453.3612114742108	1014.260976664444	1777.554979570735	488.7465143300613	909.3721744752146	2086.201343671727	902.033614866118	989.6741878561218	1952.09677051185	535.9542074514547	919.9171483305445	1968.466474383521	569.6081326878656	962.3939177527183	2029.25490262733	514.9655606825758	909.0427338714104	2045.584993657032	546.7299884154481	949.4118659734221	2240.487936945114	504.1027238246758	876.0946878298964	2173.573845765492	493.1627815372718	902.3056466793897	2216.959363094564	611.424236463891	868.3138094758067	2152.416152804124	600.7539025307451	890.4155019305388	2230.406777206379	856.7830004841294	1170.900769381939	2186.752776140602	77.16297203401889	1080.613409785873	2002.427538612707	38.06819564315904	1060.050622217233	2024.577354541709	57.62848370767688	1101.522264032549	2016.245879343614	87.86825999730884	1059.258803591251	2179.930800863586	911.1254275314691	1202.78090210766	2212.082261875642	45.33875839331908	1038.763887487167	2175.445186720357	39.74612375688805	1144.13148063968	2073.386762573409	907.4793098671256	1087.129982123221	2112.10402664443	147.7820237031115	1121.506550664041	2076.435506715057	172.1901198527116	1093.435500764773	2144.569181509186	223.4772474937468	1143.767058953816	2105.985657023899	245.5453254921253	1112.678865899009	2233.047848641877	546.1125266298044	1197.93599915868	2176.007198258896	526.9620202843854	1155.389494683251	2184.605351700824	644.3123234224431	1211.924817391924	2132.066327593184	627.2702373689607	1170.828533565053	
1693	11.28	2244.146056229074	840.5244496008781	937.5726585564163	1873.043325391747	636.4076853076003	981.4790001969726	1881.034962393692	604.9032912164497	939.2765754591443	1910.022990047452	607.6139860199728	979.4530173840853	2200.553548161988	912.3535218063281	900.2514520952096	1797.378831859494	440.1570643466002	1015.454997401029	1793.55226068401	473.4583088256025	909.9799008408797	2084.229948255892	903.1652973278226	989.5806827527416	1966.071774592893	528.9165754343899	919.6298155705744	1980.959893612518	563.3864901510648	961.9823674802803	2043.909997511143	510.7328142021663	909.3939601427866	2058.815119067427	543.3570664021145	949.5801602163833	2254.120444760433	508.632086707943	876.5919317006378	2187.576821217408	494.3066485412049	902.2993787038342	2225.242586774292	614.6084186493845	868.4291842917244	2161.092994720403	600.7081502922002	889.9167432277734	2227.831989835073	856.7075713192539	1171.483091723037	2163.665953618792	77.30659508853445	1081.491785350438	1978.953905661745	40.3222914188345	1060.215560861654	2001.217316752264	59.33389849904947	1101.89760276019	1993.258370886055	90.02885883356487	1059.890758324954	2176.532875964803	911.3629097413447	1202.683164781706	2188.229090181001	45.58378464813684	1039.283999414667	2151.7384830673	39.6486309869695	1144.38870981609	2071.440040088298	908.5892656146829	1086.818047888048	2090.248139350628	148.9689239531083	1122.022100674431	2055.183676488572	174.2037833455118	1093.952152196019	2124.537426875823	223.8173933929078	1144.203743020828	2086.617099775755	246.8091335256656	1113.038212306646	2222.466512147126	544.6052675990933	1197.757437132578	2164.446899808599	527.062526602994	1155.826886675414	2177.146880289187	644.31980545612	1211.638297594857	2123.940375939846	628.7955827765651	1170.836236728323	
